HIERARCHY
ROOT Hips
{
	OFFSET 0.000000 0.000000 0.000000
	CHANNELS 6 Xposition Yposition Zposition Zrotation Yrotation Xrotation
	JOINT LHipJoint
	{
		OFFSET 0.000000 0.000000 0.000000
		CHANNELS 3 Zrotation Yrotation Xrotation
		JOINT LeftUpLeg
		{
			OFFSET 0.076937 -0.101296 0.047373
			CHANNELS 3 Zrotation Yrotation Xrotation
			JOINT LeftLeg
			{
				OFFSET 0.138181 -0.379650 0.000000
				CHANNELS 3 Zrotation Yrotation Xrotation
				JOINT LeftFoot
				{
					OFFSET 0.144621 -0.397343 0.000000
					CHANNELS 3 Zrotation Yrotation Xrotation
					JOINT LeftToeBase
					{
						OFFSET 0.008898 -0.024446 0.131094
						CHANNELS 3 Zrotation Yrotation Xrotation
						End Site
						{
							OFFSET 0.000000 0.000000 0.000000
						}
					}
				}
			}
		}
	}
	JOINT RHipJoint
	{
		OFFSET 0.000000 0.000000 0.000000
		CHANNELS 3 Zrotation Yrotation Xrotation
		JOINT RightUpLeg
		{
			OFFSET -0.073689 -0.101296 0.047373
			CHANNELS 3 Zrotation Yrotation Xrotation
			JOINT RightLeg
			{
				OFFSET -0.143511 -0.394292 0.000000
				CHANNELS 3 Zrotation Yrotation Xrotation
				JOINT RightFoot
				{
					OFFSET -0.144963 -0.398282 0.000000
					CHANNELS 3 Zrotation Yrotation Xrotation
					JOINT RightToeBase
					{
						OFFSET -0.009298 -0.025546 0.133386
						CHANNELS 3 Zrotation Yrotation Xrotation
						End Site
						{
							OFFSET 0.000000 0.000000 0.000000
						}
					}
				}
			}
		}
	}
	JOINT LowerBack
	{
		OFFSET 0.000000 0.000000 0.000000
		CHANNELS 3 Zrotation Yrotation Xrotation
		JOINT Spine
		{
			OFFSET 0.001596 0.114897 -0.010915
			CHANNELS 3 Zrotation Yrotation Xrotation
			JOINT Spine1
			{
				OFFSET 0.003201 0.115645 -0.002413
				CHANNELS 3 Zrotation Yrotation Xrotation
				JOINT Neck
				{
					OFFSET 0.000000 0.000000 0.000000
					CHANNELS 3 Zrotation Yrotation Xrotation
					JOINT Neck1
					{
						OFFSET -0.003058 0.098565 0.009709
						CHANNELS 3 Zrotation Yrotation Xrotation
						JOINT Head
						{
							OFFSET 0.005874 0.099418 -0.006997
							CHANNELS 3 Zrotation Yrotation Xrotation
							End Site
							{
								OFFSET 0.000000 0.000000 0.000000
							}
						}
					}
				}
				JOINT LeftShoulder
				{
					OFFSET 0.000000 0.000000 0.000000
					CHANNELS 3 Zrotation Yrotation Xrotation
					JOINT LeftArm
					{
						OFFSET 0.189788 0.067783 -0.017566
						CHANNELS 3 Zrotation Yrotation Xrotation
						JOINT LeftForeArm
						{
							OFFSET 0.281260 -0.000000 -0.000000
							CHANNELS 3 Zrotation Yrotation Xrotation
							JOINT LeftHand
							{
								OFFSET 0.196626 -0.000000 -0.000000
								CHANNELS 3 Zrotation Yrotation Xrotation
								JOINT LeftFingerBase
								{
									OFFSET 0.000000 0.000000 0.000000
									CHANNELS 3 Zrotation Yrotation Xrotation
									JOINT LeftHandIndex1
									{
										OFFSET 0.040372 -0.000000 -0.000000
										CHANNELS 3 Zrotation Yrotation Xrotation
										End Site
										{
											OFFSET 0.000000 0.000000 0.000000
										}
									}
								}
								JOINT LThumb
								{
									OFFSET 0.000000 0.000000 0.000000
									CHANNELS 3 Zrotation Yrotation Xrotation
									End Site
									{
										OFFSET 0.000000 0.000000 0.000000
									}
								}
							}
						}
					}
				}
				JOINT RightShoulder
				{
					OFFSET 0.000000 0.000000 0.000000
					CHANNELS 3 Zrotation Yrotation Xrotation
					JOINT RightArm
					{
						OFFSET -0.177042 0.077557 -0.022840
						CHANNELS 3 Zrotation Yrotation Xrotation
						JOINT RightForeArm
						{
							OFFSET -0.295874 -0.000000 -0.000000
							CHANNELS 3 Zrotation Yrotation Xrotation
							JOINT RightHand
							{
								OFFSET -0.194403 -0.000000 -0.000000
								CHANNELS 3 Zrotation Yrotation Xrotation
								JOINT RightFingerBase
								{
									OFFSET 0.000000 0.000000 0.000000
									CHANNELS 3 Zrotation Yrotation Xrotation
									JOINT RightHandIndex1
									{
										OFFSET -0.035138 -0.000000 -0.000000
										CHANNELS 3 Zrotation Yrotation Xrotation
										End Site
										{
											OFFSET 0.000000 0.000000 0.000000
										}
									}
								}
								JOINT RThumb
								{
									OFFSET 0.000000 0.000000 0.000000
									CHANNELS 3 Zrotation Yrotation Xrotation
									End Site
									{
										OFFSET 0.000000 0.000000 0.000000
									}
								}
							}
						}
					}
				}
			}
		}
	}
}
MOTION
Frames: 12
Frame Time: 0.033333
20.019314 0.819278 -6.694507 2.972258 69.816704 10.399214 -16.589873 32.159982 -25.946193 -42.476894 -15.003492 -26.953393 25.831607 -0.508439 69.834749 40.265725 -8.529264 -9.802689 -6.360490 13.692392 -9.782402 9.677299 -29.818219 -8.109375 19.660844 11.893348 -26.264583 -41.327098 0.178799 90.983713 -62.403938 30.646079 -13.280089 8.533583 -27.763938 -13.076284 8.458458 -5.129839 78.197821 -1.999494 -4.507713 -7.001126 -2.638421 0.103299 7.886504 0.140891 -2.549963 -19.451203 5.973891 -4.895908 -13.670110 -2.752006 -5.143805 -21.674440 24.082984 14.706665 -3.631024 -90.805861 -31.807214 7.371423 177.740531 -66.807086 -170.213975 17.824197 -35.028884 14.899473 -0.226510 6.899457 0.169271 -0.026478 -0.002514 0.017497 0.003930 -0.006273 0.005900 -26.599196 -5.859593 0.599666 86.782730 40.157474 -0.550530 173.595116 60.912864 -175.300137 -17.701994 30.954181 14.680243 -2.466949 -6.843590 -0.144829 -0.021544 -0.079021 0.054285 -0.011130 -0.003587 0.038047 
20.055178 0.821684 -6.674548 2.955281 69.421935 10.283633 -16.276659 31.245216 -24.613280 -39.980994 -14.637814 -27.721988 26.170505 -0.811870 72.169200 39.485754 -7.309133 -11.516927 -6.484483 12.598612 -10.187479 10.510509 -31.023341 -10.450285 21.441197 13.963542 -28.991655 -42.777815 3.399088 93.806536 -61.017875 29.234982 -11.984371 8.638820 -26.599501 -12.139912 8.056938 -4.162346 78.947038 -1.403347 -4.907087 -7.493885 -2.652614 -0.159958 7.615588 0.013607 -2.574566 -19.551521 5.711311 -4.979470 -13.674871 -2.815858 -4.816178 -21.712199 24.405221 15.092823 -3.637620 -90.743962 -33.058547 7.748623 178.034464 -65.596106 -170.042198 18.444580 -34.759930 14.957092 -0.152868 7.011225 0.179111 -0.024985 -0.002410 0.017901 0.005229 -0.004346 0.005771 -26.727738 -7.002723 0.158724 86.708983 39.194473 -1.078664 174.339930 61.902102 -175.034105 -17.732013 31.133819 14.555857 -2.390876 -6.804195 -0.123589 -0.023428 -0.079632 0.054897 -0.011100 -0.003856 0.035560 
20.089709 0.822570 -6.655190 2.379238 68.958202 9.918804 -16.092244 30.231329 -23.421420 -37.896605 -13.981407 -28.163268 26.194077 -0.512408 73.722000 38.064418 -6.660125 -12.955420 -7.052689 9.806093 -10.431430 11.083463 -31.596784 -12.361461 22.671572 15.229280 -31.406308 -42.719562 5.544329 94.266139 -55.906536 24.603080 -9.131722 8.643054 -23.639070 -11.642253 6.955010 -2.723875 79.553135 -0.228909 -4.186439 -8.467476 -2.686534 -1.311251 7.643298 -0.478347 -2.986208 -19.535942 4.979456 -5.276376 -13.225572 -2.956854 -4.010971 -21.668793 24.776537 15.005023 -3.418192 -90.835647 -33.809853 7.370310 178.439423 -64.115863 -170.271600 19.275062 -33.442855 15.507155 0.202986 7.221052 0.219181 -0.023156 -0.003820 0.018083 0.005816 -0.003546 0.005574 -26.768875 -8.567419 -0.022259 87.075563 38.476458 0.631260 175.485404 63.777151 -174.460607 -17.636145 32.503635 14.581370 -1.642488 -6.935951 -0.097959 -0.025414 -0.078938 0.054119 -0.009995 -0.004382 0.032273 
20.123899 0.821917 -6.637593 1.591000 69.311814 9.271354 -15.876990 29.304506 -21.836941 -36.000212 -13.321806 -27.765167 25.770909 0.275720 74.500282 38.689749 -6.416951 -13.748732 -6.962352 9.575420 -10.737156 11.253642 -32.168046 -14.073311 24.467963 15.973860 -33.100474 -40.990900 6.857805 91.922954 -48.868488 16.962291 -5.571941 7.952309 -18.916850 -10.743357 5.876630 -1.356255 79.777345 1.154067 -2.982549 -9.268193 -2.827025 -3.029273 7.641751 -1.283653 -3.005390 -19.336029 4.149839 -5.431512 -12.431028 -3.077291 -3.134182 -21.217039 24.977399 13.975135 -2.948428 -90.003551 -35.105214 5.504715 179.209931 -62.867374 -171.040291 20.529021 -32.174278 16.599187 0.693529 7.351004 0.266659 -0.022005 -0.007589 0.017517 0.005904 -0.002316 0.004128 -26.617194 -10.238063 -0.245882 87.192964 36.983699 2.452047 176.696399 66.662285 -173.217571 -17.137180 33.520308 14.564207 -0.694845 -7.242308 -0.098297 -0.026489 -0.078476 0.051925 -0.008278 -0.002811 0.030116 
20.159228 0.821384 -6.622851 0.892159 70.115261 8.444086 -15.467252 28.894566 -19.970274 -34.501017 -12.725929 -27.010693 24.947365 1.210863 74.089524 38.849683 -6.069990 -14.167856 -6.809319 9.419155 -11.154688 10.983992 -32.789439 -15.374637 26.628716 16.449169 -33.706276 -38.419308 7.543868 88.327321 -40.545981 9.849827 -4.621921 7.208623 -14.805585 -10.669760 4.803342 0.124761 79.168122 2.262793 -1.429037 -9.275081 -2.905260 -4.301738 7.270572 -2.071245 -2.133468 -19.081895 3.640411 -4.648250 -11.684828 -2.983039 -2.152561 -20.628930 24.876324 12.388085 -2.511827 -88.493888 -35.962773 3.393843 179.555042 -62.813015 -171.151624 21.000927 -31.109078 16.970997 1.121726 7.475496 0.282908 -0.019217 -0.012487 0.016644 0.004422 -0.002628 0.002054 -26.111529 -11.836734 -0.417682 86.797482 34.956749 3.693598 177.826093 68.905228 -171.847976 -16.847496 34.466280 14.544466 -0.297765 -7.377314 -0.101900 -0.027302 -0.076369 0.050168 -0.005869 -0.001349 0.027425 
20.196088 0.822407 -6.611263 -0.065333 70.755389 7.015960 -14.658390 28.644152 -17.150929 -32.286885 -12.192623 -26.136623 23.734679 2.272711 73.420273 37.948487 -5.238833 -14.351883 -6.627169 9.210152 -11.625790 11.431310 -34.584605 -17.893335 30.945057 16.552358 -32.736039 -36.894925 6.927452 83.124293 -37.498775 6.929144 -7.704182 6.563782 -12.733486 -10.132854 3.487908 2.029088 78.464890 3.174330 -0.021201 -9.336445 -3.059123 -4.997925 7.329099 -2.847610 -0.458458 -18.752482 3.350551 -3.036723 -11.403370 -2.818992 -1.271703 -20.321561 25.062659 10.362815 -1.926828 -86.564621 -36.841454 0.447093 179.538753 -63.349654 -169.966575 21.261904 -30.285515 17.363963 1.758492 7.469619 0.275516 -0.017891 -0.014303 0.015135 0.001771 -0.003197 0.000591 -25.676484 -13.331511 -0.065756 86.313119 33.307908 4.593712 177.928797 71.044289 -171.251124 -17.086812 35.594873 15.168467 -0.134310 -7.545583 -0.137347 -0.025991 -0.075003 0.047111 -0.004817 -0.000235 0.025526 
20.234997 0.825241 -6.602731 -0.608393 71.253861 5.751572 -13.928672 28.554762 -14.292024 -30.367746 -11.843977 -25.231783 22.825159 3.049444 72.738930 36.479258 -4.304649 -14.272567 -6.881430 9.302922 -12.469803 12.177782 -37.004011 -20.683264 36.869307 16.568047 -30.784263 -34.541630 5.968510 76.630172 -35.797933 6.660576 -11.403959 6.826633 -11.565081 -10.924117 2.191020 3.878590 77.518309 3.536332 1.202334 -9.335947 -2.875515 -5.185458 7.363333 -3.445468 1.017663 -18.468405 3.274725 -1.575984 -11.706318 -2.626813 -0.664930 -20.367460 25.125486 8.287760 -1.483982 -84.716346 -37.158286 -2.247145 179.594984 -64.666445 -169.080197 21.015791 -29.895307 17.444476 2.267381 7.399071 0.303136 -0.017402 -0.014954 0.011884 -0.000561 -0.002327 -0.000952 -25.070935 -14.102713 0.154734 85.752014 31.878443 5.863217 178.182309 72.743622 -170.607811 -17.340863 36.017520 15.704915 -0.096336 -7.668059 -0.180149 -0.024293 -0.074662 0.042330 -0.003126 0.002327 0.025379 
20.275726 0.829696 -6.596336 -0.499801 71.670684 5.214487 -13.474354 28.695751 -11.745432 -29.207230 -11.268566 -23.692783 22.496897 3.794849 72.171886 35.640905 -4.037957 -14.162334 -7.595031 9.833482 -13.763573 12.743457 -39.085103 -23.115948 42.584050 16.026640 -28.510604 -31.033495 5.240851 68.830052 -35.006410 9.133881 -14.310992 7.154210 -10.657283 -11.396328 0.919068 5.372832 76.862215 3.594473 2.168897 -9.527677 -2.440799 -5.181612 7.429176 -4.004048 2.360444 -18.283772 3.140562 -0.248820 -12.357297 -2.470497 -0.060026 -20.785665 25.300398 6.199571 -1.262767 -83.357756 -37.221250 -3.921943 179.938769 -66.425141 -168.430095 20.665533 -29.082747 17.378716 2.428456 7.447916 0.330784 -0.017870 -0.016657 0.008490 -0.002735 -0.002120 -0.002671 -24.492866 -14.365775 0.002540 85.710923 30.822378 7.450170 178.430890 74.432177 -170.104273 -16.950830 36.062189 15.647177 0.061700 -7.710897 -0.237001 -0.022813 -0.075423 0.038040 -0.000338 0.005469 0.026305 
20.317410 0.834189 -6.591193 -0.461074 72.153088 5.059880 -13.146021 28.628870 -10.045234 -28.338911 -10.514170 -22.307018 22.122203 4.787375 71.306021 35.651801 -4.028527 -14.475267 -8.046921 10.133346 -14.869513 12.944993 -40.029062 -24.455290 46.091346 15.289827 -26.750822 -28.188784 4.578784 61.979884 -37.648236 12.859080 -16.158461 6.544866 -11.809971 -11.072784 0.114618 6.306683 76.009379 3.577849 2.726869 -9.532756 -2.076956 -5.182676 7.055475 -4.427961 3.431753 -18.059101 3.012618 0.778090 -12.634544 -2.340456 0.395088 -20.885422 25.099792 4.696234 -1.160804 -82.510724 -36.872626 -4.132289 -179.640383 -68.074854 -168.269748 20.121176 -28.180089 16.801094 2.387360 7.672635 0.342554 -0.017307 -0.017272 0.006611 -0.003529 -0.002240 -0.003873 -23.725643 -14.783972 -0.353474 86.141069 29.698893 9.027845 178.818756 75.795606 -169.479217 -16.548729 36.183310 15.380422 0.309663 -7.702898 -0.271523 -0.021609 -0.076602 0.035293 0.000361 0.007060 0.026187 
20.359836 0.838809 -6.586473 -0.426609 72.509098 5.287254 -13.099466 28.390867 -8.951782 -27.422385 -9.017922 -20.419120 22.426107 6.411285 70.100141 36.568192 -5.374092 -15.316755 -8.483272 11.439229 -15.884793 12.772108 -40.134224 -25.007907 48.144488 14.687706 -25.565660 -25.439679 4.213546 55.838451 -41.344714 16.564059 -17.369029 5.722902 -12.452955 -10.895904 -0.407389 6.658904 75.324537 3.481832 2.774673 -9.780592 -1.860561 -5.163268 6.713572 -4.852057 4.529745 -17.917494 2.844280 1.793985 -12.919592 -2.241441 0.925870 -20.964745 24.706606 3.641091 -0.903064 -82.325933 -36.307421 -3.337860 -178.906420 -69.465755 -168.611520 19.773218 -27.654326 16.367350 2.209764 8.069649 0.332830 -0.018833 -0.016434 0.006530 -0.003408 -0.001735 -0.004184 -22.863974 -15.295826 -0.886626 87.260773 28.832385 11.138003 179.592156 76.856384 -168.637296 -16.149476 36.461594 14.999014 0.622899 -7.724482 -0.277218 -0.019863 -0.077944 0.033274 0.000298 0.007860 0.026223 
20.402940 0.842706 -6.582001 -0.112203 72.529115 6.486310 -13.206967 27.540579 -8.216800 -25.812639 -7.045850 -18.502443 22.662122 8.857574 69.286735 38.369390 -7.479061 -15.947932 -9.089976 13.438049 -17.249499 12.346202 -39.310080 -25.246400 49.373452 13.674916 -24.535646 -21.538739 3.926514 50.143277 -44.097559 20.595846 -15.981574 5.609505 -13.278609 -10.424995 -0.818438 6.779084 74.953073 3.407722 2.637755 -10.387840 -1.765809 -5.143803 6.729664 -5.407219 5.744351 -17.975977 2.580532 2.871005 -13.452333 -2.136922 1.664013 -21.213559 24.412409 2.644634 -0.536574 -83.354728 -35.557607 -1.683565 -176.610635 -69.536020 -170.384813 20.072865 -27.448554 16.507728 2.119103 8.493194 0.367088 -0.019954 -0.016404 0.006758 -0.002898 -0.002118 -0.003450 -22.077247 -15.992635 -1.615438 89.285887 27.784314 13.462514 -179.140215 76.282077 -167.667263 -15.879413 37.065315 14.716353 1.273700 -7.642405 -0.270995 -0.019503 -0.079485 0.031701 0.000329 0.007731 0.026896 
20.446790 0.845964 -6.577465 0.095990 72.820600 6.893908 -13.021084 26.949099 -7.554162 -24.228429 -5.611880 -17.041117 22.877519 10.623564 69.250952 40.191538 -9.937406 -15.483483 -9.767132 15.556456 -18.493096 11.851295 -39.044950 -24.932405 50.504549 12.199738 -23.081159 -18.929717 4.033080 46.225086 -45.502826 23.198514 -14.345366 5.542457 -13.494672 -9.627847 -0.667630 6.588936 74.415090 3.285055 2.208217 -10.081070 -1.635954 -5.138325 6.711157 -5.598277 6.220528 -17.806872 2.488052 3.167948 -13.909768 -2.158862 1.822548 -21.433122 23.854462 1.900552 -0.003422 -84.294454 -35.279589 -0.062034 -175.834128 -69.532615 -170.614956 20.330293 -27.750616 16.612420 1.963912 8.828846 0.447007 -0.021584 -0.016660 0.006310 -0.002815 -0.001932 -0.002435 -21.291883 -15.855713 -2.128847 90.453395 27.103164 14.764051 -179.162000 75.463667 -167.596884 -15.375038 36.446980 14.034987 1.307538 -7.703103 -0.254629 -0.019446 -0.082088 0.031051 -0.000224 0.008351 0.028134 
